# MagicaVoxel @ Ephtracy

# group
o 

# material
mtllib crystall.mtl
usemtl palette

# normals
vn -1 0 0
vn 1 0 0
vn 0 0 1
vn 0 0 -1
vn 0 -1 0
vn 0 1 0

# texcoords
vt 0.978516 0.5
vt 0.990234 0.5

# verts
v -0.4 0 0.2
v -0.4 0 -0.2
v -0.4 0.2 0.2
v -0.4 0.2 -0.2
v -0.3 0 0.3
v -0.3 0 0.2
v -0.3 0 -0.2
v -0.3 0 -0.3
v -0.3 0.1 0.3
v -0.3 0.1 0.2
v -0.3 0.1 -0.2
v -0.3 0.1 -0.3
v -0.2 0 0.4
v -0.2 0 0.3
v -0.2 0 -0.3
v -0.2 0 -0.4
v -0.2 0.1 0.3
v -0.2 0.1 0.2
v -0.2 0.1 -0.2
v -0.2 0.1 -0.3
v -0.2 0.2 0.4
v -0.2 0.2 0.2
v -0.2 0.2 -0.2
v -0.2 0.2 -0.4
v -0.2 0.4 0.2
v -0.2 0.4 0
v -0.2 0.6 0
v -0.2 0.6 -0.2
v -0.1 0.4 0.1
v -0.1 0.4 0
v -0.1 0.6 0.1
v -0.1 0.6 0
v -0.1 0.6 -0.2
v -0.1 0.7 0
v -0.1 0.7 -0.1
v -0.1 0.8 -0.1
v -0.1 0.8 -0.2
v 0 0.4 0.2
v 0 0.4 0.1
v 0 0.6 0.2
v 0 0.6 0.1
v 0 0.6 0
v 0 0.7 0.1
v 0 0.7 0
v 0 0.7 -0.1
v 0 0.8 0
v 0 0.8 -0.1
v 0.1 0.7 0.1
v 0.1 0.7 0
v 0.1 0.8 0.1
v 0.1 0.8 0
v 0.2 0 0.4
v 0.2 0 0.3
v 0.2 0 -0.3
v 0.2 0 -0.4
v 0.2 0.1 0.3
v 0.2 0.1 0.2
v 0.2 0.1 -0.2
v 0.2 0.1 -0.3
v 0.2 0.2 0.4
v 0.2 0.2 0.2
v 0.2 0.2 -0.2
v 0.2 0.2 -0.4
v 0.2 0.6 0.2
v 0.2 0.6 0.1
v 0.2 0.8 0.1
v 0.2 0.8 -0.2
v 0.3 0 0.3
v 0.3 0 0.2
v 0.3 0 -0.2
v 0.3 0 -0.3
v 0.3 0.1 0.3
v 0.3 0.1 0.2
v 0.3 0.1 -0.2
v 0.3 0.1 -0.3
v 0.4 0 0.2
v 0.4 0 -0.2
v 0.4 0.2 0.2
v 0.4 0.2 -0.2
v -0.2 0 0.4
v -0.2 0.2 0.4
v 0.2 0 0.4
v 0.2 0.2 0.4
v -0.3 0 0.3
v -0.3 0.1 0.3
v -0.2 0 0.3
v -0.2 0.1 0.3
v 0.2 0 0.3
v 0.2 0.1 0.3
v 0.3 0 0.3
v 0.3 0.1 0.3
v -0.4 0 0.2
v -0.4 0.2 0.2
v -0.3 0 0.2
v -0.3 0.1 0.2
v -0.2 0.1 0.2
v -0.2 0.2 0.2
v -0.2 0.4 0.2
v 0 0.4 0.2
v 0 0.6 0.2
v 0.2 0.1 0.2
v 0.2 0.2 0.2
v 0.2 0.6 0.2
v 0.3 0 0.2
v 0.3 0.1 0.2
v 0.4 0 0.2
v 0.4 0.2 0.2
v -0.1 0.4 0.1
v -0.1 0.6 0.1
v 0 0.4 0.1
v 0 0.6 0.1
v 0 0.7 0.1
v 0.1 0.7 0.1
v 0.1 0.8 0.1
v 0.2 0.6 0.1
v 0.2 0.8 0.1
v -0.2 0.4 0
v -0.2 0.6 0
v -0.1 0.4 0
v -0.1 0.6 0
v -0.1 0.7 0
v 0 0.6 0
v 0 0.7 0
v 0 0.8 0
v 0.1 0.7 0
v 0.1 0.8 0
v -0.1 0.7 -0.1
v -0.1 0.8 -0.1
v 0 0.7 -0.1
v 0 0.8 -0.1
v -0.4 0 -0.2
v -0.4 0.2 -0.2
v -0.3 0 -0.2
v -0.3 0.1 -0.2
v -0.2 0.1 -0.2
v -0.2 0.2 -0.2
v -0.2 0.6 -0.2
v -0.1 0.6 -0.2
v -0.1 0.8 -0.2
v 0.2 0.1 -0.2
v 0.2 0.2 -0.2
v 0.2 0.8 -0.2
v 0.3 0 -0.2
v 0.3 0.1 -0.2
v 0.4 0 -0.2
v 0.4 0.2 -0.2
v -0.3 0 -0.3
v -0.3 0.1 -0.3
v -0.2 0 -0.3
v -0.2 0.1 -0.3
v 0.2 0 -0.3
v 0.2 0.1 -0.3
v 0.3 0 -0.3
v 0.3 0.1 -0.3
v -0.2 0 -0.4
v -0.2 0.2 -0.4
v 0.2 0 -0.4
v 0.2 0.2 -0.4
v -0.2 0 0.4
v 0.2 0 0.4
v -0.3 0 0.3
v -0.2 0 0.3
v 0.2 0 0.3
v 0.3 0 0.3
v -0.4 0 0.2
v -0.3 0 0.2
v 0.3 0 0.2
v 0.4 0 0.2
v -0.4 0 -0.2
v -0.3 0 -0.2
v 0.3 0 -0.2
v 0.4 0 -0.2
v -0.3 0 -0.3
v -0.2 0 -0.3
v 0.2 0 -0.3
v 0.3 0 -0.3
v -0.2 0 -0.4
v 0.2 0 -0.4
v -0.3 0.1 0.3
v -0.2 0.1 0.3
v 0.2 0.1 0.3
v 0.3 0.1 0.3
v -0.3 0.1 0.2
v -0.2 0.1 0.2
v 0.2 0.1 0.2
v 0.3 0.1 0.2
v -0.3 0.1 -0.2
v -0.2 0.1 -0.2
v 0.2 0.1 -0.2
v 0.3 0.1 -0.2
v -0.3 0.1 -0.3
v -0.2 0.1 -0.3
v 0.2 0.1 -0.3
v 0.3 0.1 -0.3
v -0.2 0.2 0.4
v 0.2 0.2 0.4
v -0.4 0.2 0.2
v -0.2 0.2 0.2
v 0.2 0.2 0.2
v 0.4 0.2 0.2
v -0.4 0.2 -0.2
v -0.2 0.2 -0.2
v 0.2 0.2 -0.2
v 0.4 0.2 -0.2
v -0.2 0.2 -0.4
v 0.2 0.2 -0.4
v -0.2 0.4 0.2
v 0 0.4 0.2
v -0.1 0.4 0.1
v 0 0.4 0.1
v -0.2 0.4 0
v -0.1 0.4 0
v 0 0.6 0.2
v 0.2 0.6 0.2
v -0.1 0.6 0.1
v 0 0.6 0.1
v 0.2 0.6 0.1
v -0.2 0.6 0
v -0.1 0.6 0
v 0 0.6 0
v -0.2 0.6 -0.2
v -0.1 0.6 -0.2
v 0 0.7 0.1
v 0.1 0.7 0.1
v -0.1 0.7 0
v 0 0.7 0
v 0.1 0.7 0
v -0.1 0.7 -0.1
v 0 0.7 -0.1
v 0.1 0.8 0.1
v 0.2 0.8 0.1
v 0 0.8 0
v 0.1 0.8 0
v -0.1 0.8 -0.1
v 0 0.8 -0.1
v -0.1 0.8 -0.2
v 0.2 0.8 -0.2

# faces
f 3/2/1 2/2/1 1/2/1
f 4/2/1 2/2/1 3/2/1
f 9/2/1 6/2/1 5/2/1
f 10/2/1 6/2/1 9/2/1
f 11/2/1 8/2/1 7/2/1
f 12/2/1 8/2/1 11/2/1
f 17/2/1 14/2/1 13/2/1
f 20/2/1 16/2/1 15/2/1
f 21/2/1 18/2/1 17/2/1
f 21/2/1 17/2/1 13/2/1
f 22/2/1 18/2/1 21/2/1
f 23/2/1 20/2/1 19/2/1
f 24/2/1 16/2/1 20/2/1
f 24/2/1 20/2/1 23/2/1
f 25/1/1 23/1/1 22/1/1
f 26/1/1 23/1/1 25/1/1
f 27/1/1 23/1/1 26/1/1
f 28/1/1 23/1/1 27/1/1
f 31/1/1 30/1/1 29/1/1
f 32/1/1 30/1/1 31/1/1
f 34/1/1 33/1/1 32/1/1
f 35/1/1 33/1/1 34/1/1
f 36/1/1 33/1/1 35/1/1
f 37/1/1 33/1/1 36/1/1
f 40/1/1 39/1/1 38/1/1
f 41/1/1 39/1/1 40/1/1
f 43/1/1 42/1/1 41/1/1
f 44/1/1 42/1/1 43/1/1
f 46/1/1 45/1/1 44/1/1
f 47/1/1 45/1/1 46/1/1
f 50/1/1 49/1/1 48/1/1
f 51/1/1 49/1/1 50/1/1
f 52/2/2 53/2/2 56/2/2
f 54/2/2 55/2/2 59/2/2
f 56/2/2 57/2/2 60/2/2
f 52/2/2 56/2/2 60/2/2
f 60/2/2 57/2/2 61/2/2
f 58/2/2 59/2/2 62/2/2
f 59/2/2 55/2/2 63/2/2
f 62/2/2 59/2/2 63/2/2
f 61/1/2 62/1/2 64/1/2
f 64/1/2 62/1/2 65/1/2
f 65/1/2 62/1/2 66/1/2
f 66/1/2 62/1/2 67/1/2
f 68/2/2 69/2/2 72/2/2
f 72/2/2 69/2/2 73/2/2
f 70/2/2 71/2/2 74/2/2
f 74/2/2 71/2/2 75/2/2
f 76/2/2 77/2/2 78/2/2
f 78/2/2 77/2/2 79/2/2
f 82/2/3 81/2/3 80/2/3
f 83/2/3 81/2/3 82/2/3
f 86/2/3 85/2/3 84/2/3
f 87/2/3 85/2/3 86/2/3
f 90/2/3 89/2/3 88/2/3
f 91/2/3 89/2/3 90/2/3
f 94/2/3 93/2/3 92/2/3
f 95/2/3 93/2/3 94/2/3
f 96/2/3 93/2/3 95/2/3
f 97/2/3 93/2/3 96/2/3
f 99/1/3 98/1/3 97/1/3
f 102/1/3 99/1/3 97/1/3
f 102/1/3 100/1/3 99/1/3
f 103/1/3 100/1/3 102/1/3
f 105/2/3 102/2/3 101/2/3
f 106/2/3 105/2/3 104/2/3
f 107/2/3 102/2/3 105/2/3
f 107/2/3 105/2/3 106/2/3
f 110/1/3 109/1/3 108/1/3
f 111/1/3 109/1/3 110/1/3
f 113/1/3 112/1/3 111/1/3
f 115/1/3 113/1/3 111/1/3
f 115/1/3 114/1/3 113/1/3
f 116/1/3 114/1/3 115/1/3
f 119/1/3 118/1/3 117/1/3
f 120/1/3 118/1/3 119/1/3
f 122/1/3 121/1/3 120/1/3
f 123/1/3 121/1/3 122/1/3
f 125/1/3 124/1/3 123/1/3
f 126/1/3 124/1/3 125/1/3
f 129/1/3 128/1/3 127/1/3
f 130/1/3 128/1/3 129/1/3
f 131/2/4 132/2/4 133/2/4
f 133/2/4 132/2/4 134/2/4
f 134/2/4 132/2/4 135/2/4
f 135/2/4 132/2/4 136/2/4
f 136/1/4 137/1/4 138/1/4
f 136/1/4 138/1/4 141/1/4
f 138/1/4 139/1/4 141/1/4
f 141/1/4 139/1/4 142/1/4
f 140/2/4 141/2/4 144/2/4
f 143/2/4 144/2/4 145/2/4
f 144/2/4 141/2/4 146/2/4
f 145/2/4 144/2/4 146/2/4
f 147/2/4 148/2/4 149/2/4
f 149/2/4 148/2/4 150/2/4
f 151/2/4 152/2/4 153/2/4
f 153/2/4 152/2/4 154/2/4
f 155/2/4 156/2/4 157/2/4
f 157/2/4 156/2/4 158/2/4
f 162/2/5 160/2/5 159/2/5
f 163/2/5 160/2/5 162/2/5
f 166/2/5 162/2/5 161/2/5
f 166/2/5 164/2/5 163/2/5
f 166/2/5 163/2/5 162/2/5
f 167/2/5 164/2/5 166/2/5
f 169/2/5 166/2/5 165/2/5
f 169/2/5 168/2/5 167/2/5
f 169/2/5 167/2/5 166/2/5
f 170/2/5 168/2/5 169/2/5
f 171/2/5 168/2/5 170/2/5
f 172/2/5 168/2/5 171/2/5
f 173/2/5 171/2/5 170/2/5
f 174/2/5 171/2/5 173/2/5
f 175/2/5 171/2/5 174/2/5
f 176/2/5 171/2/5 175/2/5
f 177/2/5 175/2/5 174/2/5
f 178/2/5 175/2/5 177/2/5
f 179/2/6 180/2/6 183/2/6
f 183/2/6 180/2/6 184/2/6
f 181/2/6 182/2/6 185/2/6
f 185/2/6 182/2/6 186/2/6
f 187/2/6 188/2/6 191/2/6
f 191/2/6 188/2/6 192/2/6
f 189/2/6 190/2/6 193/2/6
f 193/2/6 190/2/6 194/2/6
f 195/2/6 196/2/6 198/2/6
f 198/2/6 196/2/6 199/2/6
f 197/2/6 198/2/6 201/2/6
f 201/2/6 198/2/6 202/2/6
f 199/2/6 200/2/6 203/2/6
f 203/2/6 200/2/6 204/2/6
f 202/2/6 203/2/6 205/2/6
f 205/2/6 203/2/6 206/2/6
f 207/1/6 208/1/6 209/1/6
f 209/1/6 208/1/6 210/1/6
f 207/1/6 209/1/6 211/1/6
f 211/1/6 209/1/6 212/1/6
f 213/1/6 214/1/6 216/1/6
f 216/1/6 214/1/6 217/1/6
f 215/1/6 216/1/6 219/1/6
f 219/1/6 216/1/6 220/1/6
f 218/1/6 219/1/6 221/1/6
f 221/1/6 219/1/6 222/1/6
f 223/1/6 224/1/6 226/1/6
f 226/1/6 224/1/6 227/1/6
f 225/1/6 226/1/6 228/1/6
f 228/1/6 226/1/6 229/1/6
f 230/1/6 231/1/6 233/1/6
f 232/1/6 233/1/6 235/1/6
f 234/1/6 235/1/6 236/1/6
f 233/1/6 231/1/6 237/1/6
f 236/1/6 235/1/6 237/1/6
f 235/1/6 233/1/6 237/1/6
