# MagicaVoxel @ Ephtracy

# group
o 

# material
mtllib common_sword-2.mtl
usemtl palette

# normals
vn -1 0 0
vn 1 0 0
vn 0 0 1
vn 0 0 -1
vn 0 -1 0
vn 0 1 0

# texcoords
vt 0.982422 0.5
vt 0.990234 0.5

# verts
v -0.4 -2.2 0.1
v -0.4 -2.2 -0.1
v -0.4 1.8 0.1
v -0.4 1.8 -0.1
v -0.2 -2.2 0.2
v -0.2 -2.2 0.1
v -0.2 -2.2 -0.1
v -0.2 -2.2 -0.2
v -0.2 1.6 0.2
v -0.2 1.6 0.1
v -0.2 1.6 -0.1
v -0.2 1.6 -0.2
v -0.2 1.8 0.1
v -0.2 1.8 -0.1
v -0.2 2 0.1
v -0.2 2 -0.1
v 0 1.6 0.2
v 0 1.6 0.1
v 0 1.6 -0.1
v 0 1.6 -0.2
v 0 1.8 0.2
v 0 1.8 0.1
v 0 1.8 -0.1
v 0 1.8 -0.2
v 0 2 0.1
v 0 2 -0.1
v 0 2.2 0.1
v 0 2.2 -0.1
v 0.2 1.8 0.2
v 0.2 1.8 0.1
v 0.2 1.8 -0.1
v 0.2 1.8 -0.2
v 0.2 2 0.2
v 0.2 2 0.1
v 0.2 2 -0.1
v 0.2 2 -0.2
v 0.4 -2.2 0.2
v 0.4 -2.2 -0.2
v 0.4 2 0.2
v 0.4 2 0.1
v 0.4 2 -0.1
v 0.4 2 -0.2
v 0.4 2.2 0.1
v 0.4 2.2 -0.1
v -0.2 -2.2 0.2
v -0.2 1.6 0.2
v 0 1.6 0.2
v 0 1.8 0.2
v 0.2 1.8 0.2
v 0.2 2 0.2
v 0.4 -2.2 0.2
v 0.4 2 0.2
v -0.4 -2.2 0.1
v -0.4 1.8 0.1
v -0.2 -2.2 0.1
v -0.2 1.6 0.1
v -0.2 1.8 0.1
v -0.2 2 0.1
v 0 1.6 0.1
v 0 1.8 0.1
v 0 2 0.1
v 0 2.2 0.1
v 0.2 1.8 0.1
v 0.2 2 0.1
v 0.4 2 0.1
v 0.4 2.2 0.1
v -0.4 -2.2 -0.1
v -0.4 1.8 -0.1
v -0.2 -2.2 -0.1
v -0.2 1.6 -0.1
v -0.2 1.8 -0.1
v -0.2 2 -0.1
v 0 1.6 -0.1
v 0 1.8 -0.1
v 0 2 -0.1
v 0 2.2 -0.1
v 0.2 1.8 -0.1
v 0.2 2 -0.1
v 0.4 2 -0.1
v 0.4 2.2 -0.1
v -0.2 -2.2 -0.2
v -0.2 1.6 -0.2
v 0 1.6 -0.2
v 0 1.8 -0.2
v 0.2 1.8 -0.2
v 0.2 2 -0.2
v 0.4 -2.2 -0.2
v 0.4 2 -0.2
v -0.2 -2.2 0.2
v 0.4 -2.2 0.2
v -0.4 -2.2 0.1
v -0.2 -2.2 0.1
v -0.4 -2.2 -0.1
v -0.2 -2.2 -0.1
v -0.2 -2.2 -0.2
v 0.4 -2.2 -0.2
v -0.2 1.6 0.2
v 0 1.6 0.2
v -0.2 1.6 0.1
v 0 1.6 0.1
v -0.2 1.6 -0.1
v 0 1.6 -0.1
v -0.2 1.6 -0.2
v 0 1.6 -0.2
v 0 1.8 0.2
v 0.2 1.8 0.2
v -0.4 1.8 0.1
v -0.2 1.8 0.1
v 0 1.8 0.1
v 0.2 1.8 0.1
v -0.4 1.8 -0.1
v -0.2 1.8 -0.1
v 0 1.8 -0.1
v 0.2 1.8 -0.1
v 0 1.8 -0.2
v 0.2 1.8 -0.2
v 0.2 2 0.2
v 0.4 2 0.2
v -0.2 2 0.1
v 0 2 0.1
v 0.2 2 0.1
v 0.4 2 0.1
v -0.2 2 -0.1
v 0 2 -0.1
v 0.2 2 -0.1
v 0.4 2 -0.1
v 0.2 2 -0.2
v 0.4 2 -0.2
v 0 2.2 0.1
v 0.4 2.2 0.1
v 0 2.2 -0.1
v 0.4 2.2 -0.1

# faces
f 3/2/1 2/2/1 1/2/1
f 4/2/1 2/2/1 3/2/1
f 9/1/1 6/1/1 5/1/1
f 10/1/1 6/1/1 9/1/1
f 11/1/1 8/1/1 7/1/1
f 12/1/1 8/1/1 11/1/1
f 15/2/1 14/2/1 13/2/1
f 16/2/1 14/2/1 15/2/1
f 21/1/1 18/1/1 17/1/1
f 22/1/1 18/1/1 21/1/1
f 23/1/1 20/1/1 19/1/1
f 24/1/1 20/1/1 23/1/1
f 27/2/1 26/2/1 25/2/1
f 28/2/1 26/2/1 27/2/1
f 33/1/1 30/1/1 29/1/1
f 34/1/1 30/1/1 33/1/1
f 35/1/1 32/1/1 31/1/1
f 36/1/1 32/1/1 35/1/1
f 37/1/2 38/1/2 39/1/2
f 39/1/2 38/1/2 40/1/2
f 40/1/2 38/1/2 41/1/2
f 41/1/2 38/1/2 42/1/2
f 40/2/2 41/2/2 43/2/2
f 43/2/2 41/2/2 44/2/2
f 47/1/3 46/1/3 45/1/3
f 49/1/3 48/1/3 47/1/3
f 51/1/3 47/1/3 45/1/3
f 51/1/3 50/1/3 49/1/3
f 51/1/3 49/1/3 47/1/3
f 52/1/3 50/1/3 51/1/3
f 55/2/3 54/2/3 53/2/3
f 56/2/3 54/2/3 55/2/3
f 57/2/3 54/2/3 56/2/3
f 59/2/3 58/2/3 57/2/3
f 59/2/3 57/2/3 56/2/3
f 60/2/3 58/2/3 59/2/3
f 61/2/3 58/2/3 60/2/3
f 63/2/3 62/2/3 61/2/3
f 63/2/3 61/2/3 60/2/3
f 64/2/3 62/2/3 63/2/3
f 65/2/3 62/2/3 64/2/3
f 66/2/3 62/2/3 65/2/3
f 67/2/4 68/2/4 69/2/4
f 69/2/4 68/2/4 70/2/4
f 70/2/4 68/2/4 71/2/4
f 71/2/4 72/2/4 73/2/4
f 70/2/4 71/2/4 73/2/4
f 73/2/4 72/2/4 74/2/4
f 74/2/4 72/2/4 75/2/4
f 75/2/4 76/2/4 77/2/4
f 74/2/4 75/2/4 77/2/4
f 77/2/4 76/2/4 78/2/4
f 78/2/4 76/2/4 79/2/4
f 79/2/4 76/2/4 80/2/4
f 81/1/4 82/1/4 83/1/4
f 83/1/4 84/1/4 85/1/4
f 81/1/4 83/1/4 87/1/4
f 85/1/4 86/1/4 87/1/4
f 83/1/4 85/1/4 87/1/4
f 87/1/4 86/1/4 88/1/4
f 92/1/5 90/1/5 89/1/5
f 93/2/5 92/2/5 91/2/5
f 94/1/5 90/1/5 92/1/5
f 94/2/5 92/2/5 93/2/5
f 95/1/5 90/1/5 94/1/5
f 96/1/5 90/1/5 95/1/5
f 97/1/6 98/1/6 99/1/6
f 99/1/6 98/1/6 100/1/6
f 101/1/6 102/1/6 103/1/6
f 103/1/6 102/1/6 104/1/6
f 105/1/6 106/1/6 109/1/6
f 109/1/6 106/1/6 110/1/6
f 107/2/6 108/2/6 111/2/6
f 111/2/6 108/2/6 112/2/6
f 113/1/6 114/1/6 115/1/6
f 115/1/6 114/1/6 116/1/6
f 117/1/6 118/1/6 121/1/6
f 121/1/6 118/1/6 122/1/6
f 119/2/6 120/2/6 123/2/6
f 123/2/6 120/2/6 124/2/6
f 125/1/6 126/1/6 127/1/6
f 127/1/6 126/1/6 128/1/6
f 129/2/6 130/2/6 131/2/6
f 131/2/6 130/2/6 132/2/6
