# Blender v3.1.2 OBJ File: ''
# www.blender.org
mtllib pleyerhead.mtl
o head
v -0.384301 0.288226 0.288226
v -0.384301 -0.288226 -0.288226
v -0.384301 -0.288226 0.288226
v -0.384301 0.288226 -0.288226
v -0.288226 -0.288226 0.288226
v -0.288226 -0.384301 -0.288226
v -0.288226 -0.384301 0.288226
v -0.288226 -0.288226 -0.288226
v -0.288226 0.288226 0.384301
v -0.288226 -0.288226 0.384301
v -0.288226 0.288226 0.288226
v -0.288226 0.288226 -0.288226
v -0.288226 -0.288226 -0.384301
v -0.288226 0.288226 -0.384301
v -0.288226 0.384301 0.288226
v -0.288226 0.384301 -0.288226
v 0.288226 -0.384301 0.288226
v 0.288226 -0.384301 -0.288226
v 0.288226 -0.288226 0.288226
v 0.288226 -0.288226 -0.288226
v 0.288226 -0.288226 0.384301
v 0.288226 0.288226 0.384301
v 0.288226 0.288226 0.288226
v 0.288226 -0.288226 -0.384301
v 0.288226 0.288226 -0.288226
v 0.288226 0.288226 -0.384301
v 0.288226 0.384301 0.288226
v 0.288226 0.384301 -0.288226
v 0.384301 -0.288226 0.288226
v 0.384301 -0.288226 -0.288226
v 0.384301 0.288226 0.288226
v 0.384301 0.288226 -0.288226
v -0.192150 -0.096075 0.384301
v -0.288226 0.288226 0.384301
v -0.288226 -0.288226 0.384301
v -0.192150 -0.000000 0.384301
v -0.096075 -0.096075 0.384301
v -0.096075 -0.000000 0.384301
v 0.096075 -0.096075 0.384301
v 0.096075 -0.000000 0.384301
v 0.192150 -0.096075 0.384301
v 0.192150 -0.000000 0.384301
v 0.288226 -0.288226 0.384301
v 0.288226 0.288226 0.384301
v -0.288226 -0.288226 0.288226
v -0.384301 0.288226 0.288226
v -0.384301 -0.288226 0.288226
v -0.288226 0.288226 0.288226
v 0.288226 -0.384301 0.288226
v -0.288226 -0.384301 0.288226
v 0.288226 -0.288226 0.288226
v 0.288226 0.288226 0.288226
v -0.288226 0.384301 0.288226
v 0.288226 0.384301 0.288226
v 0.384301 -0.288226 0.288226
v 0.384301 0.288226 0.288226
v -0.384301 -0.288226 -0.288226
v -0.384301 0.288226 -0.288226
v -0.288226 -0.288226 -0.288226
v -0.288226 0.288226 -0.288226
v -0.288226 -0.384301 -0.288226
v 0.288226 -0.384301 -0.288226
v 0.288226 -0.288226 -0.288226
v -0.288226 0.384301 -0.288226
v 0.288226 0.288226 -0.288226
v 0.288226 0.384301 -0.288226
v 0.384301 -0.288226 -0.288226
v 0.384301 0.288226 -0.288226
v -0.288226 -0.288226 -0.384301
v -0.288226 0.288226 -0.384301
v 0.288226 -0.288226 -0.384301
v 0.288226 0.288226 -0.384301
v -0.288226 -0.384301 -0.288226
v 0.288226 -0.384301 0.288226
v -0.288226 -0.384301 0.288226
v 0.288226 -0.384301 -0.288226
v -0.288226 -0.288226 0.288226
v 0.288226 -0.288226 0.384301
v -0.288226 -0.288226 0.384301
v 0.288226 -0.288226 0.288226
v -0.384301 -0.288226 -0.288226
v -0.384301 -0.288226 0.288226
v -0.288226 -0.288226 -0.288226
v 0.288226 -0.288226 -0.288226
v 0.384301 -0.288226 0.288226
v 0.384301 -0.288226 -0.288226
v -0.288226 -0.288226 -0.384301
v 0.288226 -0.288226 -0.384301
v -0.288226 0.288226 0.384301
v 0.288226 0.288226 0.384301
v -0.288226 0.288226 0.288226
v 0.288226 0.288226 0.288226
v -0.384301 0.288226 0.288226
v -0.384301 0.288226 -0.288226
v -0.288226 0.288226 -0.288226
v 0.384301 0.288226 0.288226
v 0.288226 0.288226 -0.288226
v 0.384301 0.288226 -0.288226
v -0.288226 0.288226 -0.384301
v 0.288226 0.288226 -0.384301
v -0.288226 0.384301 0.288226
v 0.288226 0.384301 0.288226
v -0.288226 0.384301 -0.288226
v 0.288226 0.384301 -0.288226
vt 0.974609 0.500000
vt 0.974609 0.500000
vt 0.974609 0.500000
vt 0.974609 0.500000
vt 0.974609 0.500000
vt 0.974609 0.500000
vt 0.974609 0.500000
vt 0.974609 0.500000
vt 0.974609 0.500000
vt 0.974609 0.500000
vt 0.974609 0.500000
vt 0.974609 0.500000
vt 0.974609 0.500000
vt 0.974609 0.500000
vt 0.974609 0.500000
vt 0.974609 0.500000
vt 0.974609 0.500000
vt 0.974609 0.500000
vt 0.974609 0.500000
vt 0.974609 0.500000
vt 0.974609 0.500000
vt 0.974609 0.500000
vt 0.974609 0.500000
vt 0.974609 0.500000
vt 0.974609 0.500000
vt 0.974609 0.500000
vt 0.974609 0.500000
vt 0.974609 0.500000
vt 0.974609 0.500000
vt 0.974609 0.500000
vt 0.974609 0.500000
vt 0.974609 0.500000
vt 0.974609 0.500000
vt 0.974609 0.500000
vt 0.974609 0.500000
vt 0.974609 0.500000
vt 0.974609 0.500000
vt 0.994141 0.500000
vt 0.994141 0.500000
vt 0.994141 0.500000
vt 0.974609 0.500000
vt 0.994141 0.500000
vt 0.974609 0.500000
vt 0.974609 0.500000
vt 0.974609 0.500000
vt 0.994141 0.500000
vt 0.994141 0.500000
vt 0.994141 0.500000
vt 0.974609 0.500000
vt 0.994141 0.500000
vt 0.974609 0.500000
vt 0.974609 0.500000
vt 0.974609 0.500000
vt 0.974609 0.500000
vt 0.974609 0.500000
vt 0.974609 0.500000
vt 0.974609 0.500000
vt 0.974609 0.500000
vt 0.974609 0.500000
vt 0.974609 0.500000
vt 0.974609 0.500000
vt 0.974609 0.500000
vt 0.974609 0.500000
vt 0.974609 0.500000
vt 0.974609 0.500000
vt 0.974609 0.500000
vt 0.974609 0.500000
vt 0.974609 0.500000
vt 0.974609 0.500000
vt 0.974609 0.500000
vt 0.974609 0.500000
vt 0.974609 0.500000
vt 0.974609 0.500000
vt 0.974609 0.500000
vt 0.974609 0.500000
vt 0.974609 0.500000
vt 0.974609 0.500000
vt 0.974609 0.500000
vt 0.974609 0.500000
vt 0.974609 0.500000
vt 0.974609 0.500000
vt 0.974609 0.500000
vt 0.974609 0.500000
vt 0.974609 0.500000
vt 0.974609 0.500000
vt 0.974609 0.500000
vt 0.974609 0.500000
vt 0.974609 0.500000
vt 0.974609 0.500000
vt 0.974609 0.500000
vt 0.974609 0.500000
vt 0.974609 0.500000
vt 0.974609 0.500000
vt 0.974609 0.500000
vt 0.974609 0.500000
vt 0.974609 0.500000
vt 0.974609 0.500000
vt 0.974609 0.500000
vt 0.974609 0.500000
vt 0.974609 0.500000
vt 0.974609 0.500000
vt 0.974609 0.500000
vt 0.974609 0.500000
vt 0.974609 0.500000
vt 0.974609 0.500000
vt 0.974609 0.500000
vt 0.974609 0.500000
vt 0.974609 0.500000
vt 0.974609 0.500000
vt 0.974609 0.500000
vt 0.974609 0.500000
vt 0.974609 0.500000
vn -1.0000 -0.0000 0.0000
vn 1.0000 0.0000 0.0000
vn 0.0000 -0.0000 1.0000
vn 0.0000 0.0000 -1.0000
vn 0.0000 -1.0000 -0.0000
vn 0.0000 1.0000 0.0000
usemtl palette
s 1
f 1/1/1 2/2/1 3/3/1
f 4/4/1 2/2/1 1/1/1
f 5/5/1 6/6/1 7/7/1
f 8/8/1 6/6/1 5/5/1
f 9/9/1 5/5/1 10/10/1
f 11/11/1 5/5/1 9/9/1
f 12/12/1 13/13/1 8/8/1
f 14/14/1 13/13/1 12/12/1
f 15/15/1 12/12/1 11/11/1
f 16/16/1 12/12/1 15/15/1
f 17/17/2 18/18/2 19/19/2
f 19/19/2 18/18/2 20/20/2
f 21/21/2 19/19/2 22/22/2
f 22/22/2 19/19/2 23/23/2
f 20/20/2 24/24/2 25/25/2
f 25/25/2 24/24/2 26/26/2
f 23/23/2 25/25/2 27/27/2
f 27/27/2 25/25/2 28/28/2
f 29/29/2 30/30/2 31/31/2
f 31/31/2 30/30/2 32/32/2
f 33/33/3 34/34/3 35/35/3
f 36/36/3 34/34/3 33/33/3
f 37/37/3 33/33/3 35/35/3
f 37/38/3 36/39/3 33/40/3
f 38/41/3 34/34/3 36/36/3
f 38/42/3 36/39/3 37/38/3
f 39/43/3 37/37/3 35/35/3
f 39/43/3 38/41/3 37/37/3
f 40/44/3 34/34/3 38/41/3
f 40/44/3 38/41/3 39/43/3
f 41/45/3 39/43/3 35/35/3
f 41/46/3 40/47/3 39/48/3
f 42/49/3 34/34/3 40/44/3
f 42/50/3 40/47/3 41/46/3
f 43/51/3 41/45/3 35/35/3
f 43/51/3 42/49/3 41/45/3
f 44/52/3 34/34/3 42/49/3
f 44/52/3 42/49/3 43/51/3
f 45/53/3 46/54/3 47/55/3
f 48/56/3 46/54/3 45/53/3
f 49/57/3 45/53/3 50/58/3
f 51/59/3 45/53/3 49/57/3
f 52/60/3 53/61/3 48/56/3
f 54/62/3 53/61/3 52/60/3
f 55/63/3 52/60/3 51/59/3
f 56/64/3 52/60/3 55/63/3
f 57/65/4 58/66/4 59/67/4
f 59/67/4 58/66/4 60/68/4
f 61/69/4 59/67/4 62/70/4
f 62/70/4 59/67/4 63/71/4
f 60/68/4 64/72/4 65/73/4
f 65/73/4 64/72/4 66/74/4
f 63/71/4 65/73/4 67/75/4
f 67/75/4 65/73/4 68/76/4
f 69/77/4 70/78/4 71/79/4
f 71/79/4 70/78/4 72/80/4
f 73/81/5 74/82/5 75/83/5
f 76/84/5 74/82/5 73/81/5
f 77/85/5 78/86/5 79/87/5
f 80/88/5 78/86/5 77/85/5
f 81/89/5 77/85/5 82/90/5
f 83/91/5 77/85/5 81/89/5
f 84/92/5 85/93/5 80/88/5
f 86/94/5 85/93/5 84/92/5
f 87/95/5 84/92/5 83/91/5
f 88/96/5 84/92/5 87/95/5
f 89/97/6 90/98/6 91/99/6
f 91/99/6 90/98/6 92/100/6
f 93/101/6 91/99/6 94/102/6
f 94/102/6 91/99/6 95/103/6
f 92/100/6 96/104/6 97/105/6
f 97/105/6 96/104/6 98/106/6
f 95/103/6 97/105/6 99/107/6
f 99/107/6 97/105/6 100/108/6
f 101/109/6 102/110/6 103/111/6
f 103/111/6 102/110/6 104/112/6
